<svg viewBox="5903 20 80 80" xmlns="http://www.w3.org/2000/svg"><g fill="#fff" transform="translate(5903 20)"><path d="m80 80h-80v-80h80zm-77.717-2.283h75.434v-75.434h-75.434z"/><path d="m25.6 101.5h4.83v8.43h7.2v-8.43h4.83v20.812h-4.83v-8.255h-7.2v8.255h-4.83z" transform="translate(-14.36 -56.934)"/><path d="m73.7 115.287v-13.787h4.786v13.48a3.4 3.4 0 0 0 3.6 3.732c2.2 0 3.6-1.317 3.6-3.732v-13.48h4.83v13.787c0 4.83-3.293 7.6-8.43 7.6s-8.386-2.77-8.386-7.6z" transform="translate(-41.34 -56.934)"/><path d="m137.343 116.56c0 3.557-2.547 5.752-6.674 5.752h-8.869v-20.812h8.562c4.127 0 6.674 2.064 6.674 5.4a4.484 4.484 0 0 1 -4 4.742 4.667 4.667 0 0 1 4.307 4.918zm-10.713-11.591v5.093h2.678c1.844 0 2.942-.966 2.942-2.547s-1.054-2.547-2.942-2.547zm5.884 10.977c0-1.537-1.142-2.547-2.9-2.547h-2.984v5.313h2.986a2.642 2.642 0 0 0 2.897-2.766z" transform="translate(-68.321 -56.934)"/><path d="m25.6 72.3h2.766v9.308h-2.766z" transform="translate(-14.36 -40.555)"/><path d="m38.3 72.3h3.513l1.976 6.059 1.975-6.059h3.425v9.308h-2.634v-5.927l-1.712 5.884h-2.064l-1.8-5.884v5.928h-2.635v-9.309z" transform="translate(-21.484 -40.555)"/><path d="m77.447 75.769a3.369 3.369 0 0 1 -3.469 3.469h-1.712v2.371h-2.766v-9.309h4.479a3.344 3.344 0 0 1 3.468 3.469zm-2.81 0a1.249 1.249 0 0 0 -1.229-1.317h-1.142v2.634h1.142a1.249 1.249 0 0 0 1.229-1.317z" transform="translate(-38.984 -40.555)"/><path d="m95.147 80.455h-2.986l-.307 1.054h-2.854l3.161-9.309h2.986l3.161 9.308h-2.854zm-.527-2.02-.966-3.6-.966 3.6z" transform="translate(-49.922 -40.498)"/><path d="m112.7 76.618a4.809 4.809 0 0 1 5.137-4.918c2.9 0 4.786 1.405 5.005 3.864h-2.9a1.9 1.9 0 0 0 -2.064-1.405 2.513 2.513 0 0 0 0 5.005 1.9 1.9 0 0 0 2.064-1.405h2.9c-.22 2.459-2.108 3.864-5.005 3.864a4.953 4.953 0 0 1 -5.137-5.005z" transform="translate(-63.216 -40.218)"/><path d="m141.771 74.671h-2.371v-2.371h7.552v2.371h-2.371v6.894h-2.766v-6.894z" transform="translate(-78.192 -40.555)"/></g></svg>