<svg id="Capa_1" enable-background="new 0 0 512 512" height="512" viewBox="0 0 512 512" width="512" xmlns="http://www.w3.org/2000/svg"><g><g><path d="m267.928 14.045-12.551 32.196c-.99 2.54-2.949 4.583-5.445 5.678l-36.907 16.198c-2.496 1.096-5.325 1.155-7.865.164l-21.656-8.445c-7.209-2.811-8.823-12.253-3-17.349 15.629-13.678 33.58-25.232 53.604-34.021 6.998-3.072 14.071-5.726 21.194-7.976 8.209-2.592 15.753 5.534 12.626 13.555z" fill="#d67f4f"/><path d="m267.93 14.041-12.548 32.204c-.999 2.534-2.957 4.584-5.45 5.676l-36.911 16.195c-2.493 1.102-5.316 1.154-7.86.165l-14.464-5.645 24.415-10.714c2.493-1.092 4.461-3.142 5.45-5.676l12.548-32.204c.721-1.834.876-3.678.587-5.388.134-.062.278-.123.412-.185 6.995-3.07 14.072-5.728 21.191-7.974 8.21-2.597 15.751 5.532 12.63 13.546z" fill="#c76d3d"/><path d="m440.829 303.502c0 115.143-93.343 208.497-208.497 208.498-115.436.001-208.431-92.935-208.499-208.371-.05-84.964 50.711-158.07 123.568-190.602 3.872-1.729 8.415-.853 11.413 2.145l22.971 22.97c1.927 1.927 4.542 3.01 7.268 3.01h40.306c2.726 0 5.34 1.083 7.268 3.01l34.279 34.279c1.927 1.928 4.542 3.01 7.268 3.01l39.069-.045c3.623-.004 6.981 1.9 8.838 5.012l10.072 16.881c1.729 2.898 4.772 4.763 8.139 4.989l70.011 4.689c3.797.254 7.16 2.579 8.704 6.057 11.455 25.814 17.822 54.396 17.822 84.468z" fill="#d67f4f"/><path d="m440.825 303.501c0 115.144-93.335 208.499-208.488 208.499-5.872 0-11.682-.237-17.431-.721 107.015-8.829 191.109-98.485 191.109-207.777 0-30.071-6.377-58.658-17.832-84.464-1.535-3.482-4.904-5.81-8.695-6.058l-70.011-4.687c-3.369-.227-6.418-2.091-8.138-4.996l-10.075-16.874c-1.7-2.854-4.667-4.687-7.943-4.976l33.924-.041c3.616 0 6.974 1.906 8.839 5.017l10.065 16.874c1.731 2.905 4.78 4.77 8.138 4.996l70.011 4.687c3.801.247 7.16 2.575 8.705 6.058 11.455 25.805 17.822 54.393 17.822 84.463z" fill="#c76d3d"/><path d="m424.918 62.576-28.9 28.9c-1.927 1.927-4.542 3.01-7.268 3.01h-40.604c-2.726 0-5.34-1.083-7.268-3.01l-30.023-30.023c-4.013-4.013-4.014-10.52-.001-14.534l30.429-30.437c2.52-2.52 6.17-3.569 9.637-2.742 26.611 6.347 51.235 17.805 72.794 33.269 5.126 3.676 5.663 11.108 1.204 15.567z" fill="#d67f4f"/><path d="m424.919 62.573-28.897 28.907c-1.937 1.926-4.543 3.008-7.273 3.008h-34.82c2.73 0 5.347-1.082 7.273-3.008l28.897-28.907c4.461-4.461 3.925-11.888-1.205-15.566-15.607-11.198-32.832-20.295-51.252-26.877l3.647-3.647c2.514-2.524 6.171-3.575 9.632-2.74 26.61 6.346 51.231 17.802 72.793 33.265 5.13 3.677 5.665 11.104 1.205 15.565z" fill="#c76d3d"/><path d="m468.642 186.896-42.032-39.543c-2.458-2.313-3.624-5.685-3.12-9.022l2.616-17.3c.704-4.654 4.479-8.235 9.163-8.693l39.16-3.826c5.412-.529 10.309 3.248 11.159 8.619 3.338 21.089 3.45 42.651.253 63.882-1.229 8.165-11.185 11.541-17.199 5.883z" fill="#d67f4f"/><path d="m485.844 181.013c-1.236 8.17-11.188 11.538-17.204 5.882l-10.837-10.188c2.565-19.831 2.256-39.909-.855-59.575-.422-2.689-1.865-4.976-3.873-6.531l21.356-2.091c5.408-.525 10.312 3.255 11.157 8.622 3.336 21.087 3.449 42.649.256 63.881z" fill="#c76d3d"/><path d="m300.201 131.406-4.014 1.267c-5.413 1.709-11.186-1.295-12.895-6.708l-5.73-18.152c-1.709-5.413 1.295-11.186 6.708-12.895l4.014-1.267c5.413-1.709 11.186 1.295 12.895 6.708l5.73 18.152c1.708 5.413-1.295 11.186-6.708 12.895z" fill="#9d552e"/><path d="m139.955 285.469-22.928-2.322c-4.206-.426-7.724-3.378-8.875-7.446l-8.184-28.934c-1.52-5.373 1.518-10.978 6.848-12.639l26.817-8.356c3.966-1.236 8.285.031 10.956 3.213l16.879 20.112c2.905 3.461 3.215 8.412.765 12.208l-12.584 19.501c-2.099 3.252-5.844 5.053-9.694 4.663z" fill="#9d552e"/><path d="m162.233 261.305-12.589 19.502c-2.091 3.255-5.841 5.048-9.694 4.666l-21.232-2.153c.886-.69 1.669-1.535 2.297-2.514l12.579-19.502c2.452-3.801 2.143-8.746-.762-12.207l-15.36-18.286 16.163-5.038c3.966-1.236 8.283.031 10.951 3.214l16.885 20.109c2.905 3.463 3.214 8.408.762 12.209z" fill="#8e4d29"/><path d="m200.243 376.448-2.322 22.928c-.426 4.206-3.378 7.724-7.446 8.875l-28.934 8.184c-5.373 1.52-10.978-1.518-12.639-6.848l-8.356-26.817c-1.236-3.966.031-8.285 3.213-10.956l20.112-16.879c3.461-2.905 8.412-3.215 12.208-.765l19.501 12.584c3.252 2.099 5.053 5.843 4.663 9.694z" fill="#9d552e"/><path d="m200.247 376.449-2.328 22.932c-.422 4.203-3.379 7.716-7.438 8.87l-28.938 8.18c-4.636 1.319-9.447-.762-11.734-4.78l12.033-3.399c4.069-1.154 7.016-4.667 7.438-8.87l2.328-22.932c.391-3.853-1.411-7.592-4.667-9.694l-9.694-6.253 6.624-5.563c3.461-2.905 8.406-3.214 12.208-.773l19.501 12.589c3.255 2.1 5.058 5.84 4.667 9.693z" fill="#8e4d29"/><path d="m338.355 293.603-2.708 26.74c-.497 4.905-3.94 9.009-8.684 10.35l-33.745 9.544c-6.266 1.772-12.803-1.77-14.74-7.987l-9.745-31.275c-1.441-4.625.036-9.663 3.747-12.777l23.455-19.685c4.037-3.388 9.81-3.75 14.238-.892l22.743 14.676c3.793 2.448 5.894 6.815 5.439 11.306z" fill="#9d552e"/><path d="m338.353 293.602-2.709 26.743c-.494 4.904-3.935 9.004-8.684 10.353l-33.738 9.539c-4.945 1.401-10.065-.515-12.949-4.44l18.059-5.099c4.739-1.35 8.18-5.45 8.684-10.353l2.699-26.743c.464-4.491-1.638-8.86-5.439-11.301l-13.99-9.035 5.656-4.749c4.028-3.389 9.807-3.75 14.237-.896l22.736 14.68c3.789 2.441 5.891 6.809 5.438 11.301z" fill="#8e4d29"/><path d="m371.307 427.637 14.571 17.855c2.673 3.275 3.073 7.851 1.011 11.54l-14.673 26.246c-2.725 4.874-8.836 6.69-13.78 4.095l-24.871-13.054c-3.678-1.93-5.837-5.881-5.475-10.019l2.286-26.156c.393-4.502 3.674-8.221 8.092-9.174l22.688-4.891c3.782-.815 7.703.559 10.151 3.558z" fill="#9d552e"/><path d="m386.884 457.03-14.67 26.249c-2.72 4.873-8.839 6.686-13.784 4.09l-13.248-6.954 13.073-23.385c2.06-3.688 1.659-8.262-1.02-11.538l-14.268-17.492 18.183-3.915c3.791-.824 7.706.556 10.158 3.554l14.567 17.853c2.678 3.276 3.08 7.85 1.009 11.538z" fill="#8e4d29"/><g><path d="m307.846 395.312h-10.982c-4.267 0-7.726-3.459-7.726-7.726s3.459-7.726 7.726-7.726h10.982c4.267 0 7.726 3.459 7.726 7.726s-3.459 7.726-7.726 7.726z" fill="#c76d3d"/></g><g><path d="m225.438 445.386c-4.267 0-7.726-3.459-7.726-7.726v-10.982c0-4.268 3.459-7.726 7.726-7.726s7.726 3.459 7.726 7.726v10.982c0 4.268-3.459 7.726-7.726 7.726z" fill="#8e4d29"/></g><g><path d="m189.722 218.16h-10.982c-4.267 0-7.726-3.459-7.726-7.726 0-4.268 3.459-7.726 7.726-7.726h10.982c4.267 0 7.726 3.459 7.726 7.726s-3.459 7.726-7.726 7.726z" fill="#c76d3d"/></g><g><path d="m136.197 182.791c-1.977 0-3.954-.755-5.463-2.263-3.017-3.017-3.018-7.909-.001-10.927l7.765-7.766c3.018-3.018 7.909-3.017 10.927-.001 3.017 3.017 3.018 7.909 0 10.927l-7.765 7.766c-1.509 1.509-3.486 2.264-5.463 2.264z" fill="#9d552e"/></g></g><g id="XMLID_382_"><path d="m378.592 310.925h-.106c-4.267 0-7.726-3.459-7.726-7.726s3.459-7.726 7.726-7.726h.106c4.267 0 7.726 3.459 7.726 7.726s-3.459 7.726-7.726 7.726z" fill="#c76d3d"/></g><g id="XMLID_383_"><path d="m175.107 306.599h-.106c-4.267 0-7.726-3.459-7.726-7.726s3.459-7.726 7.726-7.726h.106c4.267 0 7.726 3.459 7.726 7.726s-3.459 7.726-7.726 7.726z" fill="#9d552e"/></g><g id="XMLID_389_"><path d="m343.021 392.402h-.106c-4.267 0-7.726-3.459-7.726-7.726s3.459-7.726 7.726-7.726h.106c4.267 0 7.726 3.459 7.726 7.726s-3.459 7.726-7.726 7.726z" fill="#c76d3d"/></g><g id="XMLID_384_"><path d="m99.629 363.996h-.106c-4.267 0-7.726-3.459-7.726-7.726s3.459-7.726 7.726-7.726h.106c4.267 0 7.726 3.459 7.726 7.726s-3.459 7.726-7.726 7.726z" fill="#c76d3d"/></g><g id="XMLID_387_"><path d="m250.162 254.978h-.106c-4.267 0-7.726-3.459-7.726-7.726s3.459-7.726 7.726-7.726h.106c4.267 0 7.726 3.459 7.726 7.726s-3.458 7.726-7.726 7.726z" fill="#9d552e"/></g><g id="XMLID_385_"><path d="m78.465 354.429h-.105c-4.267 0-7.726-3.459-7.726-7.726s3.459-7.726 7.726-7.726h.105c4.267 0 7.726 3.459 7.726 7.726s-3.459 7.726-7.726 7.726z" fill="#c76d3d"/></g></g></svg>