<svg viewBox="0 0 174 204" xmlns="http://www.w3.org/2000/svg">
    <path d="M158.9,175.92C158.9,191.38 126.66,203.92 86.9,203.92C47.14,203.92 14.9,191.38 14.9,175.92C14.9,160.46 47.14,147.92 86.9,147.92C126.66,147.92 158.9,160.46 158.9,175.92" style="fill:rgb(136,226,246);fill-opacity:0.5;fill-rule:nonzero;"/>
    <path d="M86.89,168.92C86.89,168.92 165.89,119.92 172.89,52.92L172.47,53.58C172.74,51.56 172.89,49.51 172.89,47.42C172.89,21.74 155.07,0.92 129.39,0.92C99.89,0.92 90.89,24.92 86.89,37.89C82.89,23.92 71.89,0.92 44.39,0.92C18.71,0.92 0.89,21.74 0.89,47.42C0.89,49.51 1.04,51.57 1.31,53.58L0.9,52.92C14.89,128.92 86.89,168.92 86.89,168.92" style="fill:rgb(38,184,0);fill-rule:nonzero;"/>
</svg>
