<svg version="1.1" id="prefix__Ebene_1" xmlns="http://www.w3.org/2000/svg" x="0" y="0" viewBox="0 0 1120 373" xml:space="preserve"><style>.prefix__st1{fill:#26b800}</style><path d="M232.9 259.92c0 15.46-32.24 28-72 28s-72-12.54-72-28 32.24-28 72-28 72 12.54 72 28" fill="#88e2f6"/><path class="prefix__st1" d="M160.89 252.92s79-49 86-116l-.42.66c.27-2.02.42-4.07.42-6.16 0-25.68-17.82-46.5-43.5-46.5-29.5 0-38.5 24-42.5 36.97-4-13.97-15-36.97-42.5-36.97-25.68 0-43.5 20.82-43.5 46.5 0 2.09.15 4.15.42 6.16l-.42-.66c14 76 86 116 86 116M332.05 240.45V131.98h8.79v109.39c0 3.79 1.52 5.45 3.64 5.45.61 0 1.21 0 2.88-.3l1.36 6.97c-1.52.45-3.03.91-5.91.91-7.28-.01-10.76-4.55-10.76-13.95zM365.83 212.12c0-26.97 16.97-42.57 36.51-42.57s36.51 15.61 36.51 42.57c0 26.82-16.97 42.27-36.51 42.27s-36.51-15.45-36.51-42.27zm63.94 0c0-20.61-11.67-34.85-27.42-34.85-15.76 0-27.27 14.24-27.27 34.85 0 20.6 11.51 34.69 27.27 34.69 15.75.01 27.42-14.08 27.42-34.69zM462.49 131.98h8.79v87.27h.3l38.63-47.57h10l-26.36 31.97 30.6 48.78h-9.7L488.7 210l-17.42 20.6v21.82h-8.79V131.98zM534.15 232.12c0-17.88 15.91-26.36 51.51-30.45.3-11.97-3.18-24.39-18.48-24.39-10.61 0-19.85 5-25.45 9.24l-3.94-6.36c6.21-4.24 17.42-10.61 30.6-10.61 19.24 0 26.06 13.79 26.06 31.66v51.21h-7.42l-.91-10.3h-.3c-8.18 6.67-17.88 12.27-28.18 12.27-13.04 0-23.49-7.27-23.49-22.27zm51.51 2.27v-26.21c-31.82 3.64-42.72 11.06-42.72 23.48 0 11.06 7.58 15.3 16.51 15.3s16.66-4.23 26.21-12.57zM622.62 240.45V131.98h8.79v109.39c0 3.79 1.51 5.45 3.64 5.45.61 0 1.21 0 2.88-.3l1.36 6.97c-1.51.45-3.03.91-5.91.91-7.27-.01-10.76-4.55-10.76-13.95z"/><g><path class="prefix__st1" d="M675.29 133.18l35.29-1.24v68.09h10.1l10.73-16.48-6.84-2.18v-12.44l40.11-.78v13.21l-10.88 2.02-14.46 20.68 17.41 32.18 11.82 3.73v12.44h-28.76l-19.28-38.09h-9.95v21.76l8.55 3.89v12.44h-43.84v-12.44l12.44-3.89v-87.37l-12.44-3.11v-12.42zM858.74 251.33l-30.78 1.09-2.8-10.11c-.93.83-2.18 1.89-3.73 3.19-1.55 1.3-4.54 3.03-8.94 5.21-4.41 2.18-8.58 3.26-12.51 3.26-7.57 0-13.47-2.12-17.72-6.37-4.25-4.25-6.37-10.26-6.37-18.03 0-17.1 12.44-25.65 37.31-25.65h10.88v-8.55c0-7.77-3.99-11.66-11.97-11.66-2.39 0-4.72.21-7 .62-2.28.42-3.99.83-5.13 1.24l-1.55.47-2.33 10.11h-14l-1.09-23.01c12.54-4.14 23.79-6.22 33.74-6.22 11.82 0 20.16 2.31 25.03 6.92 4.87 4.61 7.31 12.57 7.31 23.86v38.4l11.66 2.8v12.43zm-60.47-24.09c0 6.22 3.06 9.33 9.17 9.33 2.49 0 5.1-.75 7.85-2.25s4.9-3.03 6.45-4.59l2.33-2.18v-10.42h-8.86c-6.01 0-10.34.8-12.98 2.41-2.64 1.61-3.96 4.17-3.96 7.7zM876 226.15v-41.2l-11.35-2.8v-12.44l34.36-1.24v53.33c0 4.25.67 7.38 2.02 9.41 1.35 2.02 3.58 3.03 6.69 3.03 2.9 0 5.88-.7 8.94-2.1 3.06-1.4 5.41-2.82 7.07-4.28l2.33-2.18v-40.73l-11.5-2.8v-12.44l34.36-1.24v67.63l11.82 3.11v12.13l-31.71 1.09-1.55-10.88c-.31.31-.8.75-1.48 1.32-.67.57-2 1.58-3.96 3.03a47.771 47.771 0 01-6.06 3.81c-2.07 1.09-4.59 2.07-7.54 2.95-2.95.88-5.78 1.32-8.47 1.32-7.77 0-13.71-2.43-17.8-7.31-4.13-4.87-6.17-11.71-6.17-20.52zM986.07 170.02v-7c0-10.16 2.85-18.19 8.55-24.1 5.7-5.91 13.89-8.86 24.56-8.86 4.97 0 9.72.49 14.22 1.48 4.51.99 7.8 1.94 9.87 2.88l3.11 1.4-.47 23.01h-13.53l-2.33-11.5c-2.59-.41-5.6-.62-9.02-.62-7.98 0-11.97 4.56-11.97 13.68v9.64h20.21l-.47 15.55h-19.74v50.53l14.92 3.89v12.44h-50.37V240l12.44-3.89v-50.53h-13.99v-13.21l14.01-2.35z"/></g></svg>